<svg xmlns="http://www.w3.org/2000/svg" viewBox="0 0 506 900" width="506" height="900">
  <path d="M 248 746 L 245 747 L 239 754 L 239 762 L 255 781 L 257 786 L 257 798 L 255 800 L 257 800 L 265 791 L 266 779 L 264 774 L 254 764 L 248 755 Z" fill="#FFFFFF"/>
  <path d="M 268 723 L 269 735 L 283 745 L 289 756 L 287 793 L 277 805 L 261 812 L 244 812 L 228 805 L 219 795 L 214 780 L 214 765 L 219 749 L 236 735 L 240 724 Z" fill="#FFFFFF"/>
  <path d="M 208 522 L 190 542 L 181 564 L 180 589 L 183 604 L 196 627 L 222 647 L 241 652 L 241 509 Z" fill="#FFFFFF"/>
  <path d="M 331 229 L 95 229 L 95 542 L 283 294 L 159 293 L 160 312 L 241 318 L 115 479 L 114 249 L 318 247 Z" fill="#FFFFFF"/>
  <path d="M 391 226 L 392 386 L 367 386 L 367 291 L 264 428 L 264 485 L 316 508 L 306 526 L 264 509 L 264 544 L 369 544 L 370 566 L 264 568 L 264 652 L 305 634 L 316 653 L 242 697 L 167 626 L 160 551 L 192 505 L 241 485 L 241 419 Z" fill="#FFFFFF"/>
  <path d="M 259 191 L 264 192 L 269 190 L 273 190 L 275 188 L 279 188 L 280 186 L 282 186 L 290 181 L 292 178 L 284 175 L 282 173 L 277 173 L 276 171 L 267 171 L 263 169 L 260 169 L 259 170 Z" fill="#FFFFFF"/>
  <path d="M 247 191 L 247 170 L 246 169 L 241 169 L 236 171 L 228 171 L 227 173 L 222 173 L 212 179 L 214 179 L 215 181 L 223 186 L 225 186 L 226 188 L 230 188 L 232 190 L 236 190 L 246 193 Z" fill="#FFFFFF"/>
  <path d="M 410 164 L 95 581 L 95 665 L 120 732 L 176 793 L 246 829 L 347 778 L 407 681 Z" fill="#FFFFFF"/>
  <path d="M 214 137 L 217 154 L 221 161 L 236 157 L 268 157 L 285 161 L 291 137 Z" fill="#FFFFFF"/>
  <path d="M 214 125 L 291 125 L 290 113 L 285 101 L 268 105 L 237 105 L 221 101 L 217 108 Z" fill="#FFFFFF"/>
  <path d="M 302 93 L 296 96 L 304 117 L 304 145 L 302 154 L 296 165 L 300 170 L 308 161 L 315 141 L 315 121 L 308 101 Z" fill="#FFFFFF"/>
  <path d="M 203 93 L 192 114 L 190 139 L 194 154 L 201 166 L 205 169 L 209 164 L 203 152 L 201 121 L 205 103 L 209 96 Z" fill="#FFFFFF"/>
  <path d="M 259 71 L 259 92 L 276 91 L 278 89 L 283 89 L 285 87 L 288 87 L 289 85 L 292 84 L 288 79 L 286 79 L 278 74 L 275 74 L 274 72 L 269 72 L 266 70 L 260 70 Z" fill="#FFFFFF"/>
  <path d="M 247 71 L 246 70 L 239 70 L 236 72 L 232 72 L 230 74 L 218 79 L 213 83 L 214 85 L 216 85 L 218 87 L 221 87 L 222 89 L 227 89 L 230 91 L 236 91 L 237 92 L 247 92 Z" fill="#FFFFFF"/>
  <path d="M 244 747 L 249 748 L 249 753 L 253 761 L 264 772 L 267 778 L 267 789 L 261 797 L 256 796 L 256 786 L 238 762 L 238 754 Z" fill="#E10600"/>
  <path d="M 270 718 L 263 725 L 254 720 L 243 725 L 237 719 L 239 733 L 223 745 L 217 756 L 217 789 L 237 809 L 268 809 L 281 800 L 288 787 L 288 756 L 267 734 Z" fill="#E10600"/>
  <path d="M 236 508 L 242 509 L 241 653 L 221 648 L 198 631 L 184 609 L 178 584 L 180 563 L 192 538 L 208 521 Z" fill="#E10600"/>
  <path d="M 329 227 L 318 248 L 115 249 L 115 481 L 243 314 L 159 313 L 157 293 L 282 296 L 95 540 L 94 228 Z" fill="#E10600"/>
  <path d="M 390 224 L 242 419 L 242 485 L 161 551 L 170 629 L 242 696 L 316 650 L 263 652 L 263 567 L 369 566 L 367 545 L 263 544 L 264 508 L 316 510 L 263 485 L 263 427 L 363 294 L 369 386 L 390 386 Z" fill="#E10600"/>
  <path d="M 258 192 L 259 169 L 277 170 L 278 172 L 282 172 L 291 177 L 291 181 L 286 185 L 280 187 L 279 189 L 266 193 Z" fill="#E10600"/>
  <path d="M 248 170 L 247 193 L 231 191 L 230 189 L 226 189 L 225 187 L 219 185 L 214 181 L 215 175 L 226 172 L 228 170 L 236 170 L 240 168 L 246 168 Z" fill="#E10600"/>
  <path d="M 410 167 L 410 673 L 351 776 L 245 830 L 117 729 L 94 581 Z" fill="#E10600"/>
  <path d="M 214 147 L 215 136 L 292 137 L 291 149 L 285 162 L 266 158 L 237 158 L 221 162 Z" fill="#E10600"/>
  <path d="M 214 114 L 220 100 L 241 104 L 266 104 L 285 100 L 291 112 L 292 125 L 215 126 Z" fill="#E10600"/>
  <path d="M 298 93 L 303 93 L 307 97 L 316 121 L 314 149 L 303 169 L 296 168 L 303 143 L 303 119 L 297 102 Z" fill="#E10600"/>
  <path d="M 203 93 L 208 94 L 202 126 L 203 145 L 209 162 L 207 169 L 202 169 L 196 161 L 189 141 L 191 114 L 198 98 Z" fill="#E10600"/>
  <path d="M 258 70 L 267 69 L 269 71 L 279 73 L 280 75 L 288 78 L 291 81 L 291 85 L 288 88 L 277 92 L 259 93 Z" fill="#E10600"/>
  <path d="M 248 70 L 247 93 L 228 92 L 227 90 L 222 90 L 214 85 L 214 81 L 217 78 L 227 73 L 230 73 L 231 71 L 236 71 L 238 69 Z" fill="#E10600"/>
  <path d="M 245 45 L 184 77 L 165 131 L 73 131 L 73 673 L 148 799 L 255 854 L 354 802 L 432 678 L 433 131 L 341 131 L 309 64 Z" fill="#E10600"/>
</svg>
