<?xml version="1.0" standalone="no"?>
<!DOCTYPE svg PUBLIC "-//W3C//DTD SVG 20010904//EN"
 "http://www.w3.org/TR/2001/REC-SVG-20010904/DTD/svg10.dtd">
<svg version="1.0" xmlns="http://www.w3.org/2000/svg"
 width="646.000000pt" height="149.000000pt" viewBox="0 0 646.000000 149.000000"
 preserveAspectRatio="xMidYMid meet">

<g transform="translate(0.000000,149.000000) scale(0.100000,-0.100000)"
fill="#000000" stroke="none">
<path d="M1965 1359 c-247 -185 -265 -189 -829 -189 -342 0 -394 -2 -414 -16
-44 -30 -26 -52 148 -177 91 -65 189 -130 218 -144 98 -46 166 -25 382 119
203 135 304 158 705 158 l250 0 48 -39 c99 -83 249 -230 242 -240 -13 -23 -46
-9 -116 50 -80 67 -112 83 -145 75 -12 -3 -60 -46 -107 -96 -46 -49 -90 -90
-96 -90 -18 0 -101 81 -101 99 0 8 44 60 97 113 96 97 104 118 31 85 -45 -20
-345 -305 -357 -339 -16 -45 7 -87 78 -146 71 -59 92 -68 125 -50 13 7 95 91
181 186 86 94 162 172 169 172 6 0 39 -23 71 -51 108 -92 97 -89 300 -89 128
0 185 4 193 12 31 31 13 56 -130 189 -148 136 -207 181 -268 201 -22 7 -158
14 -380 17 l-345 6 -3 32 c-3 30 5 39 137 149 78 64 141 118 141 120 0 2 -15
4 -32 4 -26 -1 -67 -26 -193 -121z m-485 -255 c39 -8 48 -28 25 -54 -30 -33
-137 -100 -161 -100 -13 0 -65 25 -116 56 -136 82 -139 84 -133 94 7 11 334
14 385 4z"/>
<path d="M3218 1382 c-6 -118 -26 -168 -78 -194 -29 -15 -64 -18 -217 -18
-105 0 -183 -4 -183 -9 0 -5 15 -18 33 -29 24 -15 65 -23 159 -31 70 -6 138
-16 152 -22 41 -19 48 -52 44 -232 -3 -159 -4 -166 -27 -191 -14 -14 -41 -31
-60 -36 -20 -6 -211 -20 -426 -32 -358 -19 -392 -22 -410 -40 -20 -20 -18 -20
415 -16 397 3 438 2 467 -14 70 -39 86 -80 108 -278 26 -237 22 -220 56 -220
16 0 29 5 29 13 0 44 42 359 52 391 7 21 25 51 40 67 47 47 94 51 483 39 193
-5 375 -10 405 -10 54 0 54 0 35 20 -18 18 -55 22 -410 44 -214 14 -407 30
-427 36 -20 6 -48 24 -62 41 -26 30 -26 33 -26 199 0 93 3 176 6 185 13 32 64
46 203 57 115 8 139 13 159 31 12 11 22 24 22 28 0 4 -87 9 -194 11 -179 3
-197 5 -223 24 -42 31 -54 66 -64 178 -4 55 -8 102 -9 104 0 1 -11 2 -24 2
-23 0 -23 -3 -28 -98z"/>
<path d="M4250 1467 c8 -8 56 -47 105 -87 168 -137 196 -171 163 -198 -7 -5
-74 -12 -148 -14 -99 -3 -143 -9 -167 -21 -17 -9 -106 -86 -198 -172 -119
-110 -174 -155 -191 -155 -14 0 -24 6 -24 14 0 7 54 64 120 126 134 125 148
150 106 187 -23 20 -38 23 -102 23 l-74 0 -178 -161 c-233 -213 -230 -209
-196 -243 13 -13 45 -16 190 -16 112 0 183 4 197 11 12 7 45 34 74 60 44 41
58 49 91 49 45 0 55 -10 230 -217 56 -66 109 -124 118 -127 37 -14 64 -3 130
52 108 91 102 126 -50 265 l-85 77 -150 0 c-153 0 -185 8 -146 37 12 8 49 13
106 13 96 0 115 8 213 96 44 41 52 44 103 44 30 0 83 -7 117 -16 106 -27 298
-143 312 -189 8 -23 -29 -58 -231 -217 -135 -107 -152 -130 -117 -161 16 -14
51 -20 186 -27 536 -31 919 -165 1312 -460 34 -26 48 -31 88 -28 l47 3 -172
119 c-204 141 -239 171 -239 200 0 63 88 84 375 92 176 5 227 9 253 22 17 9
32 20 32 24 0 5 -64 8 -142 8 -252 1 -610 19 -683 35 -144 31 -335 153 -335
214 0 38 42 75 263 230 103 73 192 141 197 152 8 14 6 23 -10 39 -19 19 -32
20 -437 20 -582 0 -589 2 -847 194 -123 91 -163 116 -188 116 -28 0 -30 -2
-18 -13z m1040 -362 c0 -8 -33 -39 -72 -69 -94 -69 -109 -86 -115 -133 -7 -54
20 -103 117 -214 85 -96 101 -137 61 -158 -11 -6 -81 -8 -177 -5 -186 6 -224
11 -224 27 0 7 38 42 83 78 164 131 157 196 -34 353 -143 117 -141 119 114
127 106 3 204 6 220 7 18 1 27 -3 27 -13z"/>
<path d="M1429 859 c-62 -9 -131 -46 -214 -116 -169 -141 -242 -183 -381 -219
-81 -20 -138 -27 -314 -34 -118 -5 -281 -9 -362 -10 -82 0 -148 -3 -148 -7 0
-5 14 -16 31 -25 25 -15 55 -18 157 -18 220 -1 367 -15 420 -42 53 -26 65 -57
35 -90 -10 -11 -101 -80 -202 -152 l-185 -131 49 -3 c39 -3 54 2 84 23 420
311 774 432 1349 464 172 9 202 19 202 62 0 26 -232 222 -306 260 -69 34 -146
48 -215 38z m-34 -139 c30 -11 205 -157 205 -170 0 -9 -72 -16 -262 -25 -109
-5 -119 -4 -138 15 -13 13 -20 33 -20 60 0 84 125 154 215 120z"/>
</g>
</svg>
