<?xml version="1.0" encoding="utf-8"?>
<!-- Generator: Adobe Illustrator 28.0.0, SVG Export Plug-In . SVG Version: 6.00 Build 0)  -->
<svg version="1.1" id="Capa_1" xmlns="http://www.w3.org/2000/svg" xmlns:xlink="http://www.w3.org/1999/xlink" x="0px" y="0px"
	 viewBox="0 0 646 149" style="enable-background:new 0 0 646 149;" xml:space="preserve">
<style type="text/css">
	.st0{fill:#FFFFFF;}
</style>
<g transform="translate(0.000000,149.000000) scale(0.100000,-0.100000)">
	<path class="st0" d="M1965,1359c-247-185-265-189-829-189c-342,0-394-2-414-16c-44-30-26-52,148-177c91-65,189-130,218-144
		c98-46,166-25,382,119c203,135,304,158,705,158h250l48-39c99-83,249-230,242-240c-13-23-46-9-116,50c-80,67-112,83-145,75
		c-12-3-60-46-107-96c-46-49-90-90-96-90c-18,0-101,81-101,99c0,8,44,60,97,113c96,97,104,118,31,85c-45-20-345-305-357-339
		c-16-45,7-87,78-146s92-68,125-50c13,7,95,91,181,186c86,94,162,172,169,172c6,0,39-23,71-51c108-92,97-89,300-89
		c128,0,185,4,193,12c31,31,13,56-130,189c-148,136-207,181-268,201c-22,7-158,14-380,17l-345,6l-3,32c-3,30,5,39,137,149
		c78,64,141,118,141,120s-15,4-32,4C2132,1479,2091,1454,1965,1359z M1480,1104c39-8,48-28,25-54c-30-33-137-100-161-100
		c-13,0-65,25-116,56c-136,82-139,84-133,94C1102,1111,1429,1114,1480,1104z"/>
	<path class="st0" d="M3218,1382c-6-118-26-168-78-194c-29-15-64-18-217-18c-105,0-183-4-183-9s15-18,33-29c24-15,65-23,159-31
		c70-6,138-16,152-22c41-19,48-52,44-232c-3-159-4-166-27-191c-14-14-41-31-60-36c-20-6-211-20-426-32c-358-19-392-22-410-40
		c-20-20-18-20,415-16c397,3,438,2,467-14c70-39,86-80,108-278c26-237,22-220,56-220c16,0,29,5,29,13c0,44,42,359,52,391
		c7,21,25,51,40,67c47,47,94,51,483,39c193-5,375-10,405-10c54,0,54,0,35,20c-18,18-55,22-410,44c-214,14-407,30-427,36
		s-48,24-62,41c-26,30-26,33-26,199c0,93,3,176,6,185c13,32,64,46,203,57c115,8,139,13,159,31c12,11,22,24,22,28s-87,9-194,11
		c-179,3-197,5-223,24c-42,31-54,66-64,178c-4,55-8,102-9,104c0,1-11,2-24,2C3223,1480,3223,1477,3218,1382z"/>
	<path class="st0" d="M4250,1467c8-8,56-47,105-87c168-137,196-171,163-198c-7-5-74-12-148-14c-99-3-143-9-167-21
		c-17-9-106-86-198-172c-119-110-174-155-191-155c-14,0-24,6-24,14c0,7,54,64,120,126c134,125,148,150,106,187c-23,20-38,23-102,23
		h-74l-178-161c-233-213-230-209-196-243c13-13,45-16,190-16c112,0,183,4,197,11c12,7,45,34,74,60c44,41,58,49,91,49
		c45,0,55-10,230-217c56-66,109-124,118-127c37-14,64-3,130,52c108,91,102,126-50,265l-85,77h-150c-153,0-185,8-146,37
		c12,8,49,13,106,13c96,0,115,8,213,96c44,41,52,44,103,44c30,0,83-7,117-16c106-27,298-143,312-189c8-23-29-58-231-217
		c-135-107-152-130-117-161c16-14,51-20,186-27c536-31,919-165,1312-460c34-26,48-31,88-28l47,3l-172,119c-204,141-239,171-239,200
		c0,63,88,84,375,92c176,5,227,9,253,22c17,9,32,20,32,24c0,5-64,8-142,8c-252,1-610,19-683,35c-144,31-335,153-335,214
		c0,38,42,75,263,230c103,73,192,141,197,152c8,14,6,23-10,39c-19,19-32,20-437,20c-582,0-589,2-847,194c-123,91-163,116-188,116
		C4240,1480,4238,1478,4250,1467z M5290,1105c0-8-33-39-72-69c-94-69-109-86-115-133c-7-54,20-103,117-214c85-96,101-137,61-158
		c-11-6-81-8-177-5c-186,6-224,11-224,27c0,7,38,42,83,78c164,131,157,196-34,353c-143,117-141,119,114,127c106,3,204,6,220,7
		C5281,1119,5290,1115,5290,1105z"/>
	<path class="st0" d="M1429,859c-62-9-131-46-214-116c-169-141-242-183-381-219c-81-20-138-27-314-34c-118-5-281-9-362-10
		c-82,0-148-3-148-7c0-5,14-16,31-25c25-15,55-18,157-18c220-1,367-15,420-42c53-26,65-57,35-90c-10-11-101-80-202-152L266,15l49-3
		c39-3,54,2,84,23c420,311,774,432,1349,464c172,9,202,19,202,62c0,26-232,222-306,260C1575,855,1498,869,1429,859z M1395,720
		c30-11,205-157,205-170c0-9-72-16-262-25c-109-5-119-4-138,15c-13,13-20,33-20,60C1180,684,1305,754,1395,720z"/>
</g>
</svg>
